/* XPM */
static char *dummy[]={
"32 32 9 1",
"c c #000000",
". c #003300",
"e c #333333",
"f c #660033",
"# c #666666",
"b c #996699",
"g c #cc6666",
"d c #ccffff",
"a c #ff9999",
"................................",
"................................",
"................................",
"................................",
"................................",
"................................",
"................................",
"..............###...............",
".............a###a..............",
".............aa#aa..............",
"..............bcb...............",
"..............bcb...............",
".............aacab..............",
"............accccca.............",
"...........acdeeeeca............",
"...........afeeeeefg............",
"...........aefffffeg............",
"............aeeeeeg.............",
"...........aeeeeeeeg............",
"..........aeddeeeeeeg...........",
"..........aeddeeeeeeg...........",
"..........aeeeeeeeeea...........",
"...........aeeeeeeeg............",
"............aaaaggg.............",
"................................",
"................................",
"................................",
"................................",
"................................",
"................................",
"................................",
"................................"};
