/* XPM */
static char *dummy[]={
"32 32 11 1",
"d c #000000",
". c #003300",
"g c #333333",
"b c #333399",
"h c #660033",
"i c #993300",
"# c #993366",
"f c #996699",
"c c #999966",
"e c #99cccc",
"a c #ffff99",
".....................##.........",
"....................a##.........",
"..................###ab.........",
"................cccc##b.........",
"...............ccccc##b.........",
"...............cccddc#ccc.......",
"..............ccccccc#cc........",
"..............dddcc###c.........",
"..............cdcdc###de........",
"..............cccc####ebff......",
".............g#c#####ebffff.....",
".............g######geffffff....",
".........ccccgg##g#gceefffff....",
"........ccccccg#gg#gcccefffff...",
"........cgggccccccccccceeeeee...",
"........ccccggccccccccccc.......",
".........cccdddgcccccccc........",
".........hhcdddhhhhcccc.........",
".........hhcddhhaahiiiic........",
".........hhddgfhaahiiccc........",
".........hhddgffhhhffccc........",
"......e..hhddgfffffffcccc.......",
".....eef.hhddggfffffccccc.......",
"....eeff.hhddggfffffcccccc......",
"....eefffhhdhhhhffffccccci......",
"...eeffffhhddhhhhff..cccii......",
"...eeffffhhfddhhh.f...iiii......",
"...eeffffhhfddhhh.f....iiii.....",
"....effffhhffhhhh.......iii.....",
"....eef..hh.hhhhh.......iii.....",
".....e...hh.............iii.....",
"................................"};
