/* XPM */
static char *dummy[]={
"32 32 9 1",
". c #003300",
"d c #333333",
"g c #333399",
"e c #993300",
"c c #996699",
"b c #99cccc",
"# c #cc9999",
"a c #ccffff",
"f c #ff9999",
"................................",
"................................",
"................................",
"................................",
"................................",
"................................",
"................................",
"..............###...............",
"...a.b.......#####..............",
"..ab.c......######a.............",
".abbbcbb....aaaaaaa#............",
".abbbcb....#aaaaad######........",
".abbbc...###ddddd########.......",
".abbbc..###eeffeeee######.......",
"..ab.c..#eeeeffeeeeee####.......",
"...a.c..##eeeeeeeeee####g#......",
".....c...geeeeeeeeeegggg###.....",
".....ee..geeeeeeeee########.....",
"....ecegggeeeeeeeee####.####....",
"...eeegggggeeeeeeee###..####....",
"...eeeegg.geeeeeeeggg....eeee...",
"....eeeg..ggeeeeee####...eee....",
".....c...ggggeeee######.eeee....",
".....c...gggggee#######.eeee....",
"..........ggggg.######..........",
"...........gggg..######.........",
"...........dddd...#####.........",
"............ddd...eeeee.........",
"...........dddd....eee..........",
"...................eee..........",
"................................",
"................................"};
