/* XPM */
static char *dummy[]={
"32 32 9 1",
". c #003300",
"d c #333333",
"g c #333399",
"e c #993300",
"c c #996699",
"a c #99cccc",
"# c #cc9999",
"b c #ccffff",
"f c #ff9999",
"................................",
"................................",
"................................",
"................................",
"................................",
"................................",
"................................",
"...............###..............",
"..............#####.......a.b...",
".............b######......c.ab..",
"............#bbbbbbb....aacaaab.",
"........######dbbbbb#....acaaab.",
".......########ddddd###...caaab.",
".......######eeeeffee###..caaab.",
".......####eeeeeeffeeee#..c.ab..",
"......#g####eeeeeeeeee##..c.b...",
".....###ggggeeeeeeeeeeg...c.....",
".....########eeeeeeeeeg..ee.....",
"....####.####eeeeeeeeegggece....",
"....####..###eeeeeeeegggggeee...",
"...eeee....gggeeeeeeeg.ggeeee...",
"....eee...####eeeeeegg..geee....",
"....eeee.######eeeegggg...c.....",
"....eeee.#######eeggggg...c.....",
"..........######.ggggg..........",
".........######..gggg...........",
".........#####...dddd...........",
".........eeeee...ddd............",
"..........eee....dddd...........",
"..........eee...................",
"................................",
"................................"};
