/* XPM */
static char *dummy[]={
"32 32 4 1",
"b c #333333",
". c #666666",
"a c #999999",
"# c #cccc99",
".##a.b..aa.ba##a..bbb........aaa",
"####a.baaaab####a..##a.......aaa",
"####aa.baaaa####a.####a.a##a.aaa",
"a##aaa.baa..a##a.a####aa####a.aa",
".aaaa.b###a..aa..aa##aaa####ab..",
"......b####a...aa.aaabbaa##abb..",
".###.b#####a..aaaa.bbbbbaabb#a..",
"#####aa###aa.aaaaaa.aaa.b.a###a.",
"#####aaaaaa..aaaaaaa###aba####a.",
"a###aa..bbb..aaaaaaa###aba####a.",
"aaaaa..ba#aa..aaaa..aaaa.aa##aa.",
".aaa..ba###aa........aa...aaaa..",
"..bbbbba###aa.##a....a##abbbbb..",
".a##aabaaaaa.####a..a####ab.##..",
".####aabaaaaa####aa.a####ab####.",
".####aabb...aa##aaa.aa##aba####.",
"a####a..###b.aaaaa...aaaabaa##a.",
"aa##aa.####ab.aabb...aaa...aaaaa",
".aaaa..a###abbbb.a##aa...aaa....",
"a...##aaaaabaaa.a####aa.a###a.aa",
"#a.####aabbaaaaaa####aa.a###aa##",
"#a.####aabaaaaaaaa##aaa.a##aaa##",
"aaba##aaabaaaaaaaaaaaa...aaaaaa#",
"aabaaaaaab.aaaaa..aa..aaa.aaabba",
"a.b.aaaa....aaa......a##aa..##ab",
"b.bbbb....aa...aaa..a####aa####a",
".b####...##aabaa##a.a####aa####a",
"ba####a.####aba####aaa##a..a##aa",
"ba###aaaa##aaba####aaaaa.aa.aaa.",
"baaaaaaaaaaaabaa##aaaaa.aaaa..bb",
"..aaaaaaaaaaabbaaaa.aaaaaaaa.baa",
"....aa....aab..bbb...aa..aaabaaa"};
